<?xml version="1.0" encoding="UTF-8" standalone="no"?>
<svg
   width="16"
   height="22"
   viewBox="0 -6 16 22"
   fill="none"
   xmlns="http://www.w3.org/2000/svg">
  <path
     d="M 16,7.9999999 C 16,12.418239 12.418239,16 7.9999993,16 3.5817197,16 0,12.418239 0,7.9999998 0,3.5817199 3.5817197,0 7.9999993,0 12.418239,0 16,3.5817199 16,7.9999999 Z"
     fill="#0d990d"
     style="stroke-width:0.8"/>
  <path
     d="m 12.184012,4.8540994 c 0.304072,0.3040605 0.304072,0.7970519 0,1.1010811 L 6.9933187,11.145875 c -0.3040707,0.30407 -0.796979,0.30407 -1.101081,0 L 3.8159605,9.0695971 c -0.3040604,-0.3040709 -0.3040604,-0.7969792 0,-1.1010503 0.3040604,-0.3040708 0.7970518,-0.3040708 1.1011122,0 L 6.4427938,9.4941958 8.7628265,7.1741631 11.082963,4.8540994 c 0.304071,-0.3040604 0.79698,-0.3040604 1.101049,0 z"
     style="clip-rule:evenodd;fill:#ffffff;fill-opacity:1;fill-rule:evenodd;stroke-width:1.03814"/>
</svg>