<?xml version="1.0" encoding="UTF-8" standalone="no"?>
<svg
   width="16px"
   height="16px"
   viewBox="0 0 16 16"
   fill="none"
   xmlns="http://www.w3.org/2000/svg">
  <path
     d="M 16,7.9999999 C 16,12.418239 12.418239,16 7.9999993,16 3.5817197,16 0,12.418239 0,7.9999998 0,3.5817199 3.5817197,0 7.9999993,0 12.418239,0 16,3.5817199 16,7.9999999 Z"
     fill="#0d990d"
     style="stroke-width:0.8"/>
  <path
     d="m 11.224239,5.5757358 c 0.234321,0.234312 0.234321,0.6142161 0,0.848504 L 7.2242393,10.42424 c -0.2343199,0.23432 -0.6141599,0.23432 -0.8485039,0 l -1.5999998,-1.6 c -0.2343119,-0.23432 -0.2343119,-0.61416 0,-0.8484802 0.234312,-0.23432 0.614216,-0.23432 0.848528,0 L 6.7999994,9.15144 8.5878395,7.3635998 10.37576,5.5757358 c 0.23432,-0.234312 0.61416,-0.234312 0.848479,0 z"
     style="clip-rule:evenodd;fill:#ffffff;fill-rule:evenodd;stroke-width:0.8;fill-opacity:1"/>
</svg>